<?xml version="1.0" encoding="utf-8"?>
<!-- Generator: Adobe Illustrator 16.0.0, SVG Export Plug-In . SVG Version: 6.00 Build 0)  -->
<!DOCTYPE svg PUBLIC "-//W3C//DTD SVG 1.1//EN" "http://www.w3.org/Graphics/SVG/1.1/DTD/svg11.dtd">
<svg version="1.1" id="Layer_1" focusable="false" xmlns="http://www.w3.org/2000/svg" xmlns:xlink="http://www.w3.org/1999/xlink"
	 x="0px" y="0px" width="500px" height="500px" viewBox="0 0 500 500" enable-background="new 0 0 500 500" xml:space="preserve">
<path d="M250,7.812C116.211,7.812,7.812,116.211,7.812,250S116.211,492.188,250,492.188S492.188,383.789,492.188,250
	S383.789,7.812,250,7.812z M250,445.312C142.09,445.312,54.688,357.91,54.688,250S142.09,54.688,250,54.688
	S445.312,142.09,445.312,250S357.91,445.312,250,445.312z M310.352,343.359l-82.91-60.254c-3.027-2.246-4.785-5.762-4.785-9.473
	V113.281c0-6.445,5.273-11.719,11.719-11.719h31.25c6.445,0,11.719,5.273,11.719,11.719V251.66l65.234,47.461
	c5.273,3.809,6.348,11.133,2.539,16.406l-18.359,25.293C322.949,345.996,315.625,347.168,310.352,343.359L310.352,343.359z"/>
</svg>
