<?xml version="1.0" encoding="utf-8"?>
<!-- Generator: Adobe Illustrator 16.0.0, SVG Export Plug-In . SVG Version: 6.00 Build 0)  -->
<!DOCTYPE svg PUBLIC "-//W3C//DTD SVG 1.1//EN" "http://www.w3.org/Graphics/SVG/1.1/DTD/svg11.dtd">
<svg version="1.1" id="Layer_1" xmlns="http://www.w3.org/2000/svg" xmlns:xlink="http://www.w3.org/1999/xlink" x="0px" y="0px"
	 width="500px" height="500px" viewBox="0 0 500 500" enable-background="new 0 0 500 500" xml:space="preserve">
<g>
	<path fill-rule="evenodd" clip-rule="evenodd" fill="#E0E0E0" d="M454.956,364.271c0.007,4.334,0.068,8.671,0.001,13.007
		c-0.041,2.62-0.73,5.145-2.226,7.303c-1.239,1.789-2.896,3.216-5.002,3.995c-1.579,0.586-3.18,0.888-4.898,0.888
		c-98.596-0.029-197.193-0.025-295.789-0.025c-3.366,0.364-6.239-0.892-8.596-3.089c-2.118-1.979-3.594-4.478-3.626-7.521
		c-0.052-4.756-0.014-9.51-0.018-14.266c0-0.559-0.002-1.12-0.042-1.675c-0.034-0.481-0.41-0.743-0.883-0.612
		c-0.538,0.149-1.061,0.347-1.594,0.518c-3.78,1.209-7.57,2.387-11.335,3.64c-0.962,0.32-1.916,0.372-2.889,0.339
		c-1.317-0.042-2.639,0.162-3.949-0.26c-4.064-1.313-6.849-3.947-8.25-7.972c-0.825-2.369-1.504-4.787-2.261-7.179
		c-0.99-3.123-2.025-6.233-2.98-9.366c-1.503-4.929-2.974-9.867-4.413-14.813c-0.234-0.807-0.799-1.488-0.819-2.36
		c0.7-0.352,0.884-0.599,0.704-0.989c-0.087-0.189-0.213-0.361-0.341-0.525c-0.323-0.422-0.479-0.858-0.146-1.343
		c0.318-0.463,0.812-0.553,1.304-0.483c0.616,0.085,1.22,0.26,1.829,0.395c0.694,1.893,1.452,3.767,2.07,5.685
		c1.302,4.037,2.537,8.097,3.788,12.15c1.045,3.389,2.021,6.8,3.131,10.166c0.606,1.836,0.998,3.754,2.183,5.394
		c0.789,1.091,1.722,2.015,2.685,2.91c2.158,2.008,4.868,2.556,7.697,2.712c0.206,0.013,0.423-0.004,0.623-0.054
		c1.95-0.497,3.937-0.823,5.846-1.511c2.092-0.754,4.253-1.315,6.372-1.995c0.546-0.174,1.09-0.209,1.647-0.229
		c0.023,1.295,0.032,2.591,0.077,3.884c0.017,0.488,0.385,0.793,0.824,0.634c0.788-0.285,1.597-0.316,2.412-0.355
		c0.029,2.304,0.05,4.61,0.087,6.914c0.031,1.947,0.084,3.877,0.329,5.83c0.462,3.688,2.321,6.374,5.284,8.358
		c2.188,1.465,4.699,2.036,7.333,2.036c95.41,0,190.82-0.004,286.229,0.013c2.737,0,5.259-0.665,7.527-2.121
		c1.779-1.141,3.312-2.664,4.137-4.617c0.862-2.044,1.478-4.194,1.369-6.496c-0.095-2.022-0.015-4.052-0.013-6.08
		c0.247-0.109,0.543-0.166,0.731-0.341c0.304-0.278,0.513-0.658,0.807-0.949c0.384-0.382,0.879-0.501,1.325-0.157
		C453.755,364.053,454.286,364.329,454.956,364.271z"/>
	<path fill-rule="evenodd" clip-rule="evenodd" fill="#F1F1F1" d="M63.905,223.692c-0.619-2.062-1.22-4.129-1.861-6.184
		c-0.893-2.86-1.789-5.719-2.734-8.562c-0.941-2.831-1.729-5.706-2.606-8.555c-0.552-1.792-1.135-3.574-1.647-5.38
		c-0.932-3.29-0.315-6.338,1.361-9.239c1.502-2.598,3.773-4.269,6.555-5.215c2.304-0.784,4.68-1.353,7.003-2.083
		c2.855-0.899,5.675-1.91,8.534-2.796c5.914-1.832,11.78-3.821,17.776-5.379c0.943-0.245,1.848-0.634,2.78-0.921
		c3.061-0.943,6.179-1.731,9.17-2.858c1.815-0.685,3.748-0.93,5.517-1.833c1.261-0.645,2.772-0.84,4.163-1.292
		c5.297-1.721,10.639-3.307,15.971-4.919c3.664-1.106,7.407-1.992,10.988-3.32c2.421-0.897,4.936-1.434,7.352-2.339
		c2.861-1.072,5.854-1.793,8.783-2.691c1.864-0.571,3.694-1.24,5.583-1.751c2.418-0.653,4.763-1.583,7.183-2.229
		c3.773-1.009,7.402-2.447,11.137-3.563c5.537-1.657,11.044-3.415,16.572-5.101c3.789-1.156,7.601-2.239,11.386-3.407
		c1.658-0.512,3.245-1.261,4.983-1.509c2.282-1.258,4.885-1.552,7.302-2.412c2.427-0.863,4.906-1.579,7.375-2.323
		c3.731-1.124,7.473-2.216,11.209-3.324c0.134-0.04,0.257-0.112,0.39-0.154c2.916-0.906,5.833-1.818,8.722-2.789
		c3.564-1.199,7.193-2.178,10.757-3.375c3.563-1.197,7.181-2.232,10.779-3.323c2.397-0.727,4.814-1.392,7.203-2.146
		c2.256-0.711,4.471-1.554,6.731-2.249c4.392-1.352,8.822-2.579,13.196-3.981c2.588-0.829,5.199-1.562,7.799-2.347
		c2.864-0.866,5.68-1.893,8.531-2.803c4.905-1.565,9.814-3.119,14.737-4.631c3.992-1.226,8.017-2.348,12.001-3.601
		c1.108-0.349,2.203-0.255,3.307-0.36c2.265-0.214,4.276,0.481,6.174,1.605c2.404,1.424,4.237,3.325,5.091,6.081
		c1.693,5.456,3.409,10.904,5.165,16.34c1.544,4.772,2.988,9.572,4.363,14.393c0.572,2.009,1.258,3.984,1.874,5.98
		c1.025,3.327,2.036,6.66,3.055,9.989c1.008,1.546,0.984,3.438,1.729,5.097c0.733,1.639,1.126,3.433,1.646,5.168
		c0.977,3.266,1.838,6.572,2.933,9.797c0.94,2.771,1.645,5.606,2.559,8.381c1.567,4.756,3.094,9.525,4.627,14.292
		c0.405,1.259,0.789,2.524,1.151,3.796c0.201,0.709,0.642,1.049,1.361,1.056c0.629,0.006,1.258,0.008,1.888,0.008
		c17.062,0,34.124,0.013,51.185-0.01c3.323-0.005,6.046,1.209,8.457,3.47c2.088,1.956,3.239,4.326,3.759,7.06
		c0.129,0.678,0.075,1.393,0.075,2.092c0.004,12.516,0.005,25.032,0.002,37.548c-0.002,17.132-0.007,34.263-0.011,51.393
		c-0.269-0.056-0.563-0.079-0.699-0.363c-0.117-0.245-0.196-0.511-0.289-0.769c-0.275-0.759-0.83-0.979-1.609-0.987
		c-0.721-0.006-1.312,0.411-2.005,0.438c0-28.311-0.008-56.619,0.015-84.929c0.002-1.63-0.272-3.173-0.748-4.715
		c-0.802-2.603-2.567-4.498-4.701-5.967c-2.274-1.564-4.902-2.188-7.715-2.18c-15.167,0.038-30.336,0.017-45.505,0.022
		c-0.971,0-1.941-0.082-2.9,0.282c-0.426,0.162-1.011,0.18-1.434,0.021c-1.094-0.412-2.208-0.303-3.316-0.303
		c-62.143-0.005-124.284-0.005-186.426-0.005c-0.77,0-1.538-0.006-2.307-0.019c-0.455-0.009-0.803-0.201-0.982-0.639
		c0.619-0.228,1.232-0.47,1.857-0.677c0.391-0.131,0.735-0.299,0.936-0.681c0.641,0.075,1.229-0.132,1.833-0.301
		c0.53-0.149,1.082-0.224,1.624-0.331c0.249,0.388,0.621,0.539,1.065,0.541c0.629,0.004,1.258,0.009,1.887,0.009
		c51.153,0.001,102.307,0.001,153.459,0.001c8.875,0,17.75,0,26.625-0.002c0.629,0,1.258-0.006,1.885-0.052
		c0.305-0.023,0.523-0.254,0.447-0.57c-0.128-0.542-0.307-1.073-0.489-1.599c-0.595-1.71-1.336-3.382-1.779-5.129
		c-1.099-4.319-2.565-8.525-3.799-12.801c-1.256-4.346-2.712-8.635-3.975-12.978c-0.392-1.342-0.954-2.611-1.359-3.94
		c-0.564-1.859-1.159-3.709-1.725-5.568c-0.891-2.93-1.773-5.86-2.648-8.794c-0.183-0.613-0.389-1.197-0.964-1.56
		c0.316-0.695,0.105-1.353-0.108-2.029c-2.053-6.513-4.095-13.028-6.131-19.546c-0.103-0.326-0.128-0.676-0.189-1.016
		c0.421-0.43,0.164-0.644-0.257-0.806c-0.329-0.685-0.626-1.38-0.707-2.147c-0.145-0.257-0.289-0.514-0.433-0.771
		c0.146-1.05-0.583-1.84-0.836-2.774c-0.963-3.564-2.043-7.093-3.273-10.577c-0.164-0.466-0.391-0.87-0.644-1.291
		c-0.965-1.605-2.448-2.643-3.89-3.732c-0.901-0.681-1.933-1.061-3.021-1.362c-2.287-0.632-4.548-0.543-6.804,0.08
		c-1.274,0.351-2.537,0.749-3.798,1.144c-2.855,0.896-5.741,1.678-8.57,2.659c-2.951,1.023-5.964,1.858-8.931,2.849
		c-3.168,1.059-6.389,1.958-9.582,2.946c-1.132,0.35-2.238,0.786-3.373,1.128c-4.398,1.331-8.81,2.618-13.202,3.963
		c-2.859,0.876-5.691,1.841-8.544,2.733c-4.316,1.35-8.639,2.68-12.962,4c-2.396,0.732-4.808,1.415-7.203,2.145
		c-1.933,0.588-3.883,1.133-5.769,1.845c-1.627,0.615-3.301,1.083-4.936,1.679c-2.938,1.071-5.987,1.839-8.986,2.745
		c-1.6,0.483-3.186,1.008-4.788,1.485c-4.002,1.194-8.014,2.357-12.013,3.563c-2.329,0.701-4.641,1.455-6.958,2.2
		c-0.596,0.192-1.174,0.439-1.762,0.659c-0.653,0.242-1.293,0.54-1.965,0.711c-5.536,1.414-10.938,3.271-16.396,4.938
		c-3.125,0.956-6.303,1.745-9.362,2.93c-1.81,0.701-3.708,1.167-5.561,1.756c-3.52,1.118-7.027,2.279-10.558,3.362
		c-3.859,1.186-7.746,2.278-11.607,3.457c-3.266,0.997-6.514,2.049-9.765,3.094c-1.456,0.467-2.886,1.015-4.35,1.453
		c-3.467,1.04-6.952,2.016-10.418,3.055c-2.402,0.72-4.785,1.502-7.178,2.253c-1.589,0.5-3.165,1.054-4.773,1.479
		c-2.62,0.691-5.123,1.765-7.786,2.304c-0.133,0.027-0.249,0.128-0.38,0.173c-1.908,0.668-3.8,1.389-5.73,1.986
		c-4.322,1.339-8.677,2.574-12.992,3.934c-3.388,1.067-6.803,2.048-10.183,3.13c-4.977,1.593-9.941,3.222-14.958,4.686
		c-1.136,0.332-2.276,0.651-3.402,1.015c-2.516,0.813-5.057,1.567-7.523,2.512c-1.55,0.595-3.053,1.418-4.091,2.799
		c-1.051,1.399-1.867,2.932-2.502,4.574c-0.555,1.432-0.302,2.897-0.394,4.35c-0.085,1.357,0.305,2.621,0.705,3.88
		c0.715,2.255,1.533,4.482,2.175,6.757c0.398,1.411,0.813,2.807,1.369,4.162c-0.023,0.49,0.098,0.948,0.243,1.415
		c0.984,3.157,1.956,6.319,2.912,9.485c0.318,1.054,0.58,2.125,0.867,3.189C66.619,222.834,65.176,223.001,63.905,223.692z"/>
	<path fill-rule="evenodd" clip-rule="evenodd" fill="#E7E7E7" d="M98.736,321.874c-0.609-0.135-1.213-0.31-1.829-0.395
		c-0.493-0.069-0.986,0.021-1.304,0.483c-0.333,0.484-0.177,0.921,0.146,1.343c0.127,0.164,0.254,0.336,0.341,0.525
		c0.181,0.391-0.003,0.638-0.704,0.989c-0.699-2.18-1.429-4.351-2.09-6.543c-0.762-2.524-1.523-5.047-2.403-7.535
		c-0.761-2.155-1.385-4.361-2.045-6.551c-0.701-2.325-1.352-4.667-2.064-6.99c-0.836-2.724-1.794-5.412-2.556-8.154
		c-0.986-3.547-2.322-6.983-3.184-10.571c-0.531-2.215-1.349-4.359-2.037-6.534c0.378-0.287,0.408-0.698,0.411-1.122
		c0.005-0.625,0.003-1.251,0.034-1.874c0.02-0.38,0.227-0.65,0.624-0.713c0.357-0.058,0.711-0.017,0.923,0.316
		c0.186,0.286,0.332,0.604,0.47,0.92c0.193,0.442,0.342,0.908,0.548,1.345c0.23,0.483,0.654,0.695,1.181,0.71
		c0.815,1.257,0.977,2.743,1.422,4.127c1.148,3.575,2.201,7.18,3.328,10.762c0.688,2.186,1.515,4.332,2.142,6.536
		c0.42,1.476,0.967,2.896,1.445,4.347c0.587,1.781,0.984,3.624,1.588,5.398c1.817,5.331,3.229,10.787,5.04,16.122
		C98.49,319.777,98.859,320.796,98.736,321.874z"/>
	<path fill-rule="evenodd" clip-rule="evenodd" fill="#EAEAEA" d="M83.198,271.523c-0.527-0.015-0.951-0.227-1.181-0.71
		c-0.207-0.437-0.355-0.902-0.548-1.345c-0.138-0.315-0.284-0.634-0.47-0.92c-0.212-0.333-0.566-0.374-0.923-0.316
		c-0.396,0.062-0.604,0.333-0.624,0.713c-0.031,0.623-0.029,1.249-0.034,1.874c-0.003,0.424-0.032,0.835-0.411,1.122
		c-0.583-0.403-0.577-1.104-0.758-1.673c-0.761-2.374-1.428-4.778-2.141-7.168c-1.308-4.384-2.599-8.771-3.947-13.143
		c-0.796-2.584-1.765-5.115-2.515-7.71c-0.864-2.99-1.922-5.918-2.738-8.922c-0.107-0.394-0.063-0.829-0.089-1.245
		c0.63-0.317,1.081-0.799,0.671-1.49c-0.42-0.708-0.952-1.397-1.913-1.452c-0.558-1.816-1.116-3.632-1.673-5.448
		c1.271-0.689,2.714-0.857,4.053-1.337c0.485,1.003,0.816,2.057,1.133,3.127c0.75,2.53,1.587,5.033,2.372,7.552
		c0.136,0.439,0.383,0.725,0.81,0.867c0.003,0.106,0.011,0.209,0.023,0.314c0.003,0.694-0.031,1.375,0.187,2.066
		c1.083,3.446,2.133,6.904,3.179,10.361c0.724,2.392,1.276,4.85,2.175,7.172c0.829,2.143,1.492,4.336,2.205,6.508
		c1.06,3.23,1.926,6.527,3.014,9.757C83.205,270.524,83.155,271.04,83.198,271.523z"/>
	<path fill-rule="evenodd" clip-rule="evenodd" fill="#EAEAEA" d="M450.371,294.604c0.692-0.027,1.284-0.444,2.005-0.438
		c0.779,0.009,1.334,0.229,1.609,0.987c0.093,0.258,0.172,0.523,0.289,0.769c0.136,0.284,0.431,0.308,0.699,0.363
		c-0.002,12.449-0.005,24.896-0.007,37.347c-0.351-0.042-0.646-0.164-0.841-0.49c-0.654-1.098-1.527-1.483-2.753-0.894
		c-0.287,0.137-0.667,0.087-1.004,0.122C450.369,319.782,450.371,307.193,450.371,294.604z"/>
	<path fill-rule="evenodd" clip-rule="evenodd" fill="#E7E7E7" d="M450.369,332.37c0.337-0.035,0.717,0.015,1.004-0.122
		c1.226-0.59,2.099-0.204,2.753,0.894c0.195,0.326,0.49,0.448,0.841,0.49c-0.003,10.211-0.007,20.425-0.01,30.639
		c-0.671,0.059-1.202-0.218-1.723-0.616c-0.446-0.344-0.941-0.225-1.325,0.157c-0.294,0.291-0.503,0.671-0.807,0.949
		c-0.188,0.175-0.484,0.231-0.731,0.341C450.371,354.192,450.37,343.28,450.369,332.37z"/>
	<path fill-rule="evenodd" clip-rule="evenodd" fill="#F1F1F1" d="M65.578,229.139c0.961,0.055,1.493,0.744,1.913,1.452
		c0.41,0.691-0.041,1.173-0.671,1.49C65.979,231.28,65.86,230.174,65.578,229.139z"/>
	<path fill-rule="evenodd" clip-rule="evenodd" fill="#FFFFFF" d="M450.369,332.37c0.001,10.91,0.002,21.822,0.002,32.731
		c-0.002,2.028-0.082,4.058,0.013,6.08c0.108,2.302-0.507,4.452-1.369,6.496c-0.825,1.953-2.357,3.477-4.137,4.617
		c-2.269,1.456-4.79,2.121-7.527,2.121c-95.408-0.017-190.819-0.013-286.229-0.013c-2.633,0-5.145-0.571-7.333-2.036
		c-2.963-1.984-4.822-4.67-5.284-8.358c-0.245-1.953-0.297-3.883-0.329-5.83c-0.037-2.304-0.059-4.61-0.086-6.914
		c0.017-1.787,0.033-3.573,0.049-5.36c0.006-7.802,0.013-15.604,0.016-23.405c0-0.208-0.037-0.415-0.056-0.623
		c0.04-0.486,0.115-0.971,0.114-1.456c-0.002-3.694-0.019-7.391-0.032-11.085c-0.002-2.786-0.004-5.574-0.007-8.36
		c0.001-4.064,0.002-8.128,0.003-12.191c-0.003-27.511-0.007-55.019-0.012-82.529c0-0.908-0.023-1.814-0.036-2.723
		c0.318-0.728,0.253-1.5,0.265-2.266c0.02-1.255-0.019-2.516,0.094-3.763c0.487-5.405,5.113-10.145,10.766-10.462
		c0.904-0.051,1.812-0.04,2.719-0.04c11.506-0.002,23.014-0.02,34.521,0.012c2.659,0.008,5.294-0.032,7.856-0.842
		c0.18,0.439,0.528,0.631,0.983,0.64c0.769,0.012,1.537,0.019,2.307,0.019c62.142,0,124.283,0,186.426,0.005
		c1.108,0,2.223-0.109,3.316,0.303c0.423,0.159,1.008,0.141,1.434-0.021c0.959-0.364,1.93-0.282,2.9-0.282
		c15.169-0.006,30.338,0.016,45.505-0.022c2.812-0.007,5.44,0.616,7.715,2.18c2.134,1.469,3.899,3.365,4.701,5.967
		c0.476,1.542,0.75,3.085,0.748,4.715c-0.022,28.31-0.015,56.619-0.015,84.929C450.371,307.193,450.369,319.782,450.369,332.37z
		 M385.339,343.297c-4.678-0.004-9.356-0.019-14.035-0.013c-2.211,0.004-2.34,0.135-2.34,2.402
		c-0.007,9.704-0.004,19.411-0.002,29.118c0,0.352-0.006,0.7,0.02,1.047c0.056,0.733,0.271,0.934,1.064,0.983
		c0.348,0.022,0.697,0.014,1.047,0.014c4.748-0.004,9.498-0.008,14.245-0.012c5.588,0,11.176,0,16.763,0
		c4.752,0.004,9.504,0.012,14.255,0.01c2.481,0,2.537-0.062,2.539-2.626c0.002-9.293,0-18.589,0-27.882
		c0-0.35,0.015-0.7-0.004-1.048c-0.07-1.323-0.638-1.915-1.906-2.003c-0.278-0.019-0.559-0.006-0.839-0.006
		c-4.682,0.004-9.363,0.009-14.046,0.015C396.513,343.297,390.927,343.297,385.339,343.297z M185.379,275.715
		c8.25,0,16.5,0,24.75,0.002c2.364,0,2.262,0.102,2.261-2.314c-0.002-8.39-0.002-16.779,0-25.169c0-2.375,0.113-2.288-2.288-2.288
		c-16.57,0.002-33.14,0-49.71,0.002c-2.293,0-2.306,0.008-2.307,2.31c-0.005,8.39,0.005,16.781-0.006,25.171
		c-0.003,2.502,0.174,2.286,2.339,2.286C168.739,275.717,177.059,275.715,185.379,275.715z M308.945,301.12
		c0-3.557,0.001-7.114-0.001-10.673c0-0.488,0.013-0.977-0.015-1.465c-0.043-0.802-0.243-1.06-0.968-1.065
		c-2.441-0.023-4.883-0.021-7.323,0.006c-0.628,0.006-0.84,0.268-0.89,0.92c-0.031,0.418-0.023,0.838-0.023,1.255
		c-0.002,7.185-0.001,14.372-0.001,21.557c0,0.278-0.005,0.559,0.005,0.837c0.046,1.268,0.146,1.384,1.502,1.398
		c2.093,0.021,4.186,0.004,6.277,0.004c0.14,0,0.28-0.002,0.419-0.013c0.76-0.062,0.954-0.251,1-1.043
		c0.029-0.486,0.017-0.975,0.017-1.462C308.946,307.956,308.945,304.538,308.945,301.12z M265.307,300.993c0-2.79,0-5.58,0-8.371
		c0-1.115,0.018-2.231-0.008-3.347c-0.027-1.199-0.166-1.356-1.311-1.375c-1.884-0.027-3.768-0.005-5.65-0.013
		c-2.305-0.009-2.257-0.052-2.255,2.337c0.007,7.116,0.002,14.23,0.004,21.346c0,0.488,0.002,0.977,0.028,1.465
		c0.026,0.475,0.276,0.819,0.766,0.823c2.511,0.021,5.022,0.027,7.533,0.006c0.609-0.006,0.826-0.28,0.869-0.943
		c0.032-0.485,0.022-0.974,0.022-1.462C265.307,307.971,265.307,304.481,265.307,300.993z M221.666,300.854
		c0-2.722,0.002-5.443,0-8.163c-0.001-1.255,0.012-2.513-0.021-3.768c-0.021-0.765-0.249-1.003-1.02-1.012
		c-2.372-0.024-4.744-0.024-7.115-0.002c-0.8,0.009-0.998,0.23-1.045,0.989c-0.03,0.488-0.02,0.977-0.02,1.465
		c-0.001,7.045-0.001,14.093,0,21.138c0,0.42-0.012,0.84,0.011,1.257c0.049,0.888,0.24,1.112,1.134,1.122
		c2.302,0.025,4.604,0.011,6.907,0.009c0.139,0,0.279-0.011,0.416-0.033c0.377-0.062,0.657-0.269,0.692-0.659
		c0.048-0.555,0.059-1.113,0.06-1.67C221.669,307.971,221.666,304.411,221.666,300.854z M343.365,300.68c0.001,0,0.002,0,0.004,0
		c0,3.979-0.012,7.957,0.009,11.938c0.004,1.067,0.189,1.251,1.207,1.268c1.815,0.026,3.632,0.014,5.445,0.01
		c2.506-0.008,2.552-0.05,2.554-2.597c0.004-7.052,0.002-14.104,0-21.155c0-0.419,0.008-0.839-0.02-1.255
		c-0.052-0.741-0.261-0.958-1.06-0.98c-1.187-0.033-2.374-0.019-3.561-0.019c-1.187,0.002-2.375-0.011-3.562,0.022
		c-0.758,0.023-0.949,0.247-1.002,1.037c-0.024,0.349-0.016,0.698-0.016,1.047C343.364,293.558,343.365,297.118,343.365,300.68z
		 M244.758,300.892c0-2.233,0.002-4.469,0-6.702c-0.001-1.746,0.011-3.493-0.021-5.238c-0.014-0.794-0.236-1.028-0.995-1.037
		c-2.375-0.026-4.749-0.028-7.123-0.004c-0.866,0.009-1.029,0.232-1.079,1.181c-0.015,0.278-0.007,0.559-0.007,0.837
		c0,7.193,0,14.386,0,21.579c0,0.349-0.013,0.697,0.015,1.047c0.073,0.929,0.382,1.259,1.282,1.323
		c0.556,0.039,1.117,0.019,1.676,0.019c1.675,0,3.352,0.017,5.027-0.013c1.025-0.017,1.17-0.192,1.218-1.259
		c0.019-0.42,0.007-0.839,0.007-1.257C244.758,307.875,244.758,304.384,244.758,300.892z M375.682,301.114
		c0-3.56,0-7.118-0.002-10.68c0-0.488,0.013-0.979-0.015-1.465c-0.048-0.811-0.233-1.045-0.985-1.053
		c-2.302-0.025-4.606-0.021-6.908,0.006c-0.629,0.006-0.847,0.271-0.896,0.918c-0.032,0.416-0.024,0.838-0.024,1.255
		c-0.002,7.189-0.002,14.38,0,21.568c0,0.42-0.008,0.84,0.022,1.255c0.046,0.652,0.269,0.938,0.874,0.943
		c2.371,0.023,4.744,0.015,7.117-0.002c0.49-0.004,0.756-0.334,0.783-0.812c0.03-0.557,0.03-1.115,0.03-1.672
		C375.682,307.956,375.682,304.534,375.682,301.114z M363.939,300.938c0-1.816,0-3.63,0-5.445c-0.001-2.024,0.016-4.05-0.008-6.073
		c-0.017-1.411-0.12-1.505-1.591-1.523c-1.605-0.021-3.21-0.002-4.816-0.006c-2.493-0.009-2.423-0.096-2.422,2.383
		c0.006,7.05,0.001,14.102,0.004,21.15c0,0.488-0.011,0.979,0.021,1.465c0.048,0.755,0.249,0.979,1.051,0.987
		c2.234,0.024,4.468,0.008,6.701,0.006c0.07,0,0.14-0.006,0.21-0.012c0.476-0.051,0.783-0.3,0.814-0.786
		c0.035-0.557,0.035-1.117,0.035-1.674C363.94,307.918,363.939,304.428,363.939,300.938z M323.21,300.947c0,2.513,0,5.026,0,7.538
		c0.001,1.396-0.018,2.793,0.013,4.188c0.022,1.028,0.188,1.197,1.265,1.209c2.023,0.027,4.05,0.027,6.073,0.005
		c1.347-0.015,1.432-0.123,1.478-1.428c0.01-0.278,0.004-0.559,0.004-0.837c0-7.12,0-14.24-0.001-21.36
		c0-0.488,0.008-0.979-0.029-1.465c-0.048-0.626-0.275-0.869-0.934-0.879c-1.743-0.033-3.488-0.027-5.234-0.027
		c-0.627,0-1.257,0.004-1.882,0.048c-0.38,0.027-0.655,0.268-0.689,0.656c-0.05,0.555-0.059,1.114-0.061,1.671
		C323.208,293.827,323.21,297.387,323.21,300.947z M320.297,300.954c0-1.745,0.002-3.488,0-5.236
		c-0.002-2.233,0.013-4.467-0.017-6.7c-0.011-0.879-0.241-1.099-1.143-1.113c-1.745-0.029-3.491-0.011-5.236-0.015
		c-2.493-0.007-2.439-0.114-2.438,2.364c0.005,7.12,0.001,14.24,0.003,21.36c0,0.42-0.01,0.84,0.019,1.257
		c0.05,0.761,0.254,0.993,1.036,1.002c2.232,0.024,4.467,0.026,6.7,0.002c0.803-0.009,1.007-0.232,1.055-0.984
		c0.031-0.486,0.021-0.977,0.021-1.465C320.298,307.935,320.297,304.444,320.297,300.954z M288.402,301.114
		c0-3.56,0-7.12-0.001-10.682c-0.001-0.488,0.013-0.977-0.016-1.465c-0.048-0.809-0.232-1.045-0.984-1.051
		c-2.304-0.025-4.606-0.021-6.911,0.004c-0.629,0.008-0.848,0.272-0.897,0.918c-0.03,0.416-0.024,0.838-0.024,1.255
		c0,7.191,0,14.382,0,21.57c0,0.42-0.006,0.84,0.022,1.255c0.046,0.652,0.271,0.938,0.875,0.943
		c2.373,0.023,4.745,0.015,7.118-0.004c0.489-0.002,0.757-0.332,0.785-0.809c0.031-0.557,0.031-1.115,0.031-1.674
		C288.403,307.956,288.402,304.534,288.402,301.114z M267.825,300.864c0,2.024,0,4.048,0,6.071c0,1.677-0.011,3.352,0.004,5.025
		c0.015,1.914,0.023,1.92,2.027,1.933c1.604,0.011,3.211,0.006,4.815,0c0.418-0.002,0.839-0.008,1.252-0.052
		c0.387-0.042,0.619-0.293,0.683-0.673c0.034-0.206,0.045-0.418,0.045-0.626c0.002-7.747,0.002-15.495,0.002-23.243
		c0-0.07,0.002-0.141-0.002-0.209c-0.057-0.95-0.212-1.17-1.083-1.181c-2.233-0.027-4.467-0.008-6.7-0.004
		c-0.137,0.002-0.276,0.031-0.411,0.062c-0.3,0.062-0.518,0.247-0.547,0.548c-0.052,0.553-0.08,1.112-0.081,1.667
		C267.822,293.744,267.825,297.304,267.825,300.864z M233.016,300.897c0-3.49,0.001-6.98-0.001-10.469
		c0-0.56-0.001-1.118-0.03-1.675c-0.024-0.474-0.282-0.82-0.768-0.825c-2.373-0.022-4.746-0.028-7.118-0.006
		c-0.625,0.006-0.842,0.271-0.887,0.927c-0.033,0.486-0.024,0.977-0.024,1.465c-0.001,7.049-0.001,14.099,0,21.148
		c0,0.488-0.009,0.977,0.023,1.465c0.043,0.654,0.263,0.901,0.877,0.937c0.696,0.042,1.396,0.031,2.094,0.029
		c1.605,0,3.21,0.011,4.815-0.022c0.757-0.017,0.951-0.25,1.002-1.039c0.026-0.418,0.016-0.837,0.016-1.255
		C233.016,308.016,233.016,304.457,233.016,300.897z"/>
	<path fill-rule="evenodd" clip-rule="evenodd" fill="#FFFFFF" d="M83.198,271.523c-0.043-0.483,0.007-0.999-0.144-1.445
		c-1.088-3.229-1.954-6.526-3.014-9.757c-0.712-2.172-1.375-4.365-2.205-6.508c-0.899-2.322-1.451-4.78-2.175-7.172
		c-1.046-3.457-2.096-6.915-3.179-10.361c-0.218-0.692-0.184-1.373-0.187-2.066c1.262-0.126,2.412-0.621,3.566-1.095
		c0.106-0.045,0.16-0.219,0.238-0.333c0.271-0.081,0.542-0.162,0.814-0.242c0.833,0.308,1.478,0.099,2.119-0.688
		c1.323-0.416,2.6-0.995,4.001-1.134c0.439,0.122,0.803,0.043,1.036-0.388c1.003-0.436,2.036-0.773,3.131-0.889
		c0.883,0.048,1.705-0.083,2.325-0.802c0.572-0.34,1.204-0.445,1.857-0.468c1.697-0.157,3.27-0.708,4.765-1.504
		c0.049-0.026,0.064-0.116,0.096-0.177c0.273-0.071,0.548-0.142,0.822-0.213c0.113,0.071,0.253,0.229,0.336,0.203
		c2.761-0.862,5.599-1.483,8.271-2.621c0.103-0.044,0.148-0.225,0.22-0.341c0.271-0.074,0.542-0.146,0.812-0.22
		c0.192,0.243,0.437,0.313,0.728,0.217c1.113-0.371,2.226-0.743,3.338-1.113c0.28-0.094,0.467-0.281,0.577-0.55
		c0.271-0.079,0.541-0.158,0.811-0.237c0.533,0.393,0.597,0.369,0.857-0.323c1.736-0.523,3.421-1.219,5.223-1.514
		c1.296-0.108,2.55-0.343,3.598-1.198c0.57-0.354,1.208-0.445,1.86-0.479c1.66-0.172,2.464-0.446,3.597-1.226
		c0.277-0.077,0.553-0.153,0.83-0.229c0.05,0.044,0.103,0.13,0.15,0.127c1.199-0.062,2.354-0.504,3.216-1.218
		c0.273-0.068,0.546-0.138,0.82-0.207c0.194,0.258,0.446,0.289,0.732,0.186c0.586-0.21,1.173-0.42,1.76-0.629
		c-0.001,28.238-0.002,56.476-0.003,84.713c-0.136,0.14-0.272,0.28-0.409,0.422c-1.084-0.083-2.047,0.354-3.032,0.702
		c-1.309,0.466-2.608,0.962-3.933,1.376c-1.928,0.6-3.875,1.136-5.812,1.71c-0.468,0.139-0.924,0.317-1.385,0.479
		c-0.392,0.14-0.511,0.461-0.483,0.829c0.02,0.274,0.102,0.544,0.18,0.811c0.791,2.672,1.583,5.342,2.385,8.009
		c0.08,0.267,0.212,0.518,0.338,0.767c0.343,0.676,0.626,0.814,1.33,0.604c1.535-0.454,3.065-0.931,4.599-1.39
		c1.934-0.582,3.87-1.155,5.805-1.73c0.514,0.396,0.416,0.968,0.423,1.506c0.027,2.049,0.049,4.1,0.073,6.148
		c-0.351,0.214-0.678,0.505-1.058,0.632c-1.512,0.505-3.042,0.955-4.563,1.429c-0.861,0.271-1.728,0.52-2.577,0.821
		c-1.118,0.398-1.258,0.712-0.933,1.895c0.091,0.334,0.207,0.663,0.311,0.993c0.663,2.117,1.358,4.226,1.982,6.354
		c0.743,2.53,0.705,2.501,3.181,1.754c1.186-0.357,2.302-1,3.594-0.967c0.005,7.986,0.01,15.972,0.015,23.958
		c-0.008,0.124-0.026,0.245-0.054,0.367c-0.557,0.02-1.101,0.055-1.647,0.229c-2.119,0.68-4.28,1.241-6.372,1.995
		c-1.909,0.688-3.896,1.014-5.846,1.511c-0.2,0.05-0.417,0.066-0.623,0.054c-2.829-0.156-5.539-0.704-7.697-2.712
		c-0.963-0.896-1.896-1.819-2.685-2.91c-1.185-1.64-1.576-3.558-2.183-5.394c-1.111-3.366-2.086-6.777-3.131-10.166
		c-1.251-4.054-2.486-8.113-3.788-12.15c-0.619-1.918-1.376-3.792-2.07-5.685c0.123-1.078-0.246-2.097-0.572-3.059
		c-1.811-5.335-3.223-10.791-5.04-16.122c-0.604-1.774-1.001-3.617-1.588-5.398c-0.479-1.45-1.025-2.871-1.445-4.347
		c-0.627-2.204-1.454-4.351-2.142-6.536c-1.127-3.582-2.179-7.187-3.328-10.762C84.175,274.267,84.014,272.78,83.198,271.523z"/>
	<path fill-rule="evenodd" clip-rule="evenodd" fill="#BFBFBF" d="M134.777,357.103c0.028-0.122,0.046-0.243,0.054-0.367
		c1.178,0.021,2.168-0.702,3.308-0.831c-0.016,1.787-0.032,3.573-0.049,5.36c-0.816,0.039-1.625,0.07-2.413,0.355
		c-0.439,0.159-0.807-0.146-0.824-0.634C134.809,359.693,134.8,358.397,134.777,357.103z"/>
	<path fill-rule="evenodd" clip-rule="evenodd" fill="#0081A9" d="M76.913,232.545c-0.272,0.08-0.542,0.161-0.814,0.241
		c-1.381,0.01-2.583,0.632-3.827,1.114c-0.427-0.142-0.673-0.427-0.81-0.867c-0.785-2.519-1.622-5.022-2.372-7.552
		c-0.317-1.07-0.648-2.124-1.133-3.127c-0.286-1.063-0.547-2.135-0.866-3.189c-0.956-3.166-1.928-6.328-2.912-9.485
		c-0.145-0.466-0.266-0.924-0.243-1.415c2.07-0.635,4.142-1.266,6.211-1.906c6.604-2.044,13.208-4.086,19.808-6.141
		c6.068-1.89,12.128-3.805,18.198-5.69c6.602-2.048,13.214-4.062,19.815-6.112c5.936-1.844,11.861-3.727,17.796-5.573
		c6.936-2.157,13.878-4.289,20.815-6.44c3.135-0.973,6.26-1.98,9.396-2.948c6.337-1.958,12.682-3.889,19.017-5.855
		c4.536-1.406,9.054-2.869,13.591-4.273c7.938-2.457,15.887-4.876,23.824-7.337c6.87-2.13,13.725-4.306,20.592-6.444
		c9.935-3.094,19.876-6.168,29.812-9.257c9.535-2.963,19.067-5.94,28.604-8.9c7.201-2.236,14.407-4.455,21.609-6.686
		c4.67-1.447,9.339-2.899,14.005-4.36c3.664-1.147,7.322-2.311,10.983-3.466c0.354,0.129,0.628,0.008,0.857-0.264
		c0.605,0.002,1.125-0.293,1.671-0.491c0.433,0.025,0.864,0.05,1.297,0.076c0.081,0.767,0.378,1.462,0.706,2.147
		c-0.169,0.35-0.062,0.613,0.258,0.806c0.062,0.34,0.087,0.69,0.189,1.016c2.036,6.518,4.078,13.033,6.131,19.546
		c0.214,0.676,0.425,1.333,0.108,2.03c-0.878,0.225-1.769,0.411-2.633,0.681c-7.668,2.392-15.327,4.81-22.995,7.196
		c-9.271,2.884-18.55,5.734-27.82,8.616c-9.337,2.903-18.666,5.833-28.003,8.737c-6.8,2.117-13.608,4.208-20.411,6.319
		c-6.203,1.927-12.399,3.873-18.602,5.802c-8.869,2.759-17.739,5.519-26.612,8.265c-4.936,1.528-9.885,3.014-14.815,4.556
		c-2.262,0.708-4.495,1.508-6.74,2.267c-0.542,0.107-1.094,0.182-1.624,0.331c-0.603,0.169-1.192,0.376-1.833,0.301
		c-0.978-0.027-1.955-0.078-2.932-0.078c-15.578-0.005-31.157,0.012-46.734-0.027c-1.71-0.004-3.317,0.256-4.896,0.856
		c-2.412,0.914-4.425,2.338-5.784,4.564c-1.249,2.046-2.158,4.17-2.021,6.688c0.138,2.507,0.012,5.027,0.002,7.542l0.062,0.18
		c-0.939-0.025-1.788,0.233-2.532,0.814c-0.273,0.068-0.547,0.138-0.82,0.207c-1.226,0.043-2.353,0.395-3.367,1.091
		c-0.277,0.076-0.553,0.153-0.83,0.229c-1.336,0.005-2.535,0.416-3.597,1.227c-0.652,0.034-1.29,0.125-1.86,0.479
		c-1.315,0.049-2.538,0.379-3.598,1.198c-1.802,0.295-3.487,0.991-5.223,1.514c-0.357-0.081-0.632,0.054-0.857,0.323
		c-0.271,0.079-0.541,0.158-0.811,0.236c-1.655,0.137-3.181,0.689-4.643,1.447c-0.271,0.074-0.541,0.146-0.812,0.219
		c-0.336,0.04-0.688,0.03-1.007,0.125c-1.789,0.536-3.579,1.072-5.351,1.659c-0.838,0.277-1.773,0.333-2.47,0.975
		c-0.274,0.071-0.549,0.142-0.822,0.213c-1.635,0.123-3.119,0.753-4.603,1.375c-0.11,0.046-0.173,0.202-0.257,0.307
		c-0.653,0.023-1.285,0.128-1.857,0.468c-0.91-0.125-1.704,0.087-2.325,0.802c-1.095,0.116-2.128,0.453-3.131,0.889
		c-0.478-0.226-0.787-0.001-1.036,0.388c-1.401,0.139-2.678,0.719-4.001,1.134C78.256,231.869,77.536,232.058,76.913,232.545z"/>
	<path fill-rule="evenodd" clip-rule="evenodd" fill="#FEFEFF" d="M358.015,116.876c-3.661,1.155-7.319,2.319-10.983,3.466
		c-4.666,1.46-9.335,2.913-14.005,4.36c-7.202,2.231-14.408,4.45-21.609,6.686c-9.537,2.96-19.069,5.937-28.604,8.9
		c-9.937,3.089-19.878,6.164-29.812,9.257c-6.867,2.138-13.723,4.314-20.592,6.444c-7.937,2.461-15.886,4.88-23.824,7.337
		c-4.537,1.404-9.055,2.867-13.591,4.273c-6.335,1.966-12.68,3.897-19.017,5.855c-3.136,0.968-6.261,1.975-9.396,2.948
		c-6.937,2.151-13.879,4.283-20.815,6.44c-5.935,1.847-11.86,3.729-17.796,5.573c-6.602,2.051-13.213,4.064-19.815,6.112
		c-6.07,1.885-12.13,3.8-18.198,5.69c-6.6,2.055-13.204,4.096-19.808,6.141c-2.069,0.641-4.141,1.271-6.211,1.906
		c-0.555-1.355-0.97-2.751-1.368-4.162c-0.642-2.275-1.459-4.501-2.175-6.757c-0.399-1.259-0.79-2.523-0.705-3.88
		c0.092-1.452-0.161-2.918,0.394-4.35c0.636-1.643,1.452-3.175,2.502-4.574c1.038-1.381,2.541-2.204,4.091-2.799
		c2.466-0.945,5.007-1.699,7.523-2.512c1.125-0.363,2.266-0.683,3.402-1.015c5.017-1.464,9.981-3.093,14.958-4.686
		c3.38-1.083,6.795-2.063,10.183-3.13c4.315-1.36,8.67-2.595,12.992-3.934c1.93-0.597,3.822-1.318,5.73-1.986
		c0.131-0.045,0.248-0.146,0.38-0.173c2.663-0.539,5.167-1.613,7.786-2.304c1.609-0.425,3.184-0.979,4.773-1.479
		c2.393-0.751,4.775-1.534,7.178-2.253c3.466-1.039,6.951-2.015,10.418-3.055c1.464-0.438,2.894-0.986,4.35-1.453
		c3.251-1.044,6.5-2.097,9.765-3.094c3.861-1.178,7.748-2.271,11.607-3.457c3.53-1.083,7.038-2.245,10.558-3.362
		c1.853-0.588,3.751-1.055,5.561-1.756c3.059-1.185,6.237-1.974,9.362-2.93c5.458-1.668,10.86-3.524,16.396-4.938
		c0.672-0.171,1.312-0.47,1.965-0.711c0.587-0.219,1.166-0.466,1.762-0.659c2.316-0.745,4.629-1.499,6.958-2.2
		c3.999-1.206,8.011-2.37,12.013-3.563c1.602-0.478,3.188-1.002,4.788-1.485c2.999-0.906,6.048-1.673,8.986-2.745
		c1.635-0.595,3.309-1.064,4.936-1.679c1.886-0.712,3.836-1.257,5.769-1.845c2.396-0.73,4.807-1.413,7.203-2.145
		c4.323-1.32,8.646-2.651,12.962-4c2.853-0.893,5.685-1.857,8.544-2.733c4.393-1.345,8.804-2.632,13.202-3.963
		c1.135-0.343,2.241-0.778,3.373-1.128c3.193-0.988,6.414-1.887,9.582-2.946c2.967-0.99,5.979-1.825,8.931-2.849
		c2.829-0.981,5.715-1.764,8.57-2.659c1.261-0.395,2.523-0.793,3.798-1.144c2.256-0.623,4.517-0.712,6.804-0.08
		c1.089,0.301,2.12,0.681,3.021,1.362c1.441,1.089,2.925,2.127,3.89,3.732c0.253,0.421,0.479,0.825,0.644,1.291
		c1.23,3.483,2.311,7.012,3.273,10.577c0.253,0.935,0.981,1.724,0.836,2.774c-0.459,0.018-0.789,0.199-0.864,0.695
		c-0.546,0.198-1.065,0.493-1.671,0.491C358.348,116.273,358.348,116.273,358.015,116.876z"/>
	<path fill-rule="evenodd" clip-rule="evenodd" fill="#FEFEFF" d="M200.602,194.182c2.246-0.759,4.479-1.56,6.74-2.267
		c4.93-1.542,9.879-3.028,14.815-4.556c8.873-2.747,17.743-5.506,26.612-8.265c6.202-1.929,12.398-3.875,18.602-5.802
		c6.803-2.112,13.611-4.202,20.411-6.319c9.337-2.904,18.666-5.834,28.003-8.737c9.271-2.882,18.55-5.732,27.82-8.616
		c7.668-2.386,15.327-4.805,22.995-7.196c0.864-0.27,1.755-0.456,2.633-0.681c0.575,0.362,0.781,0.946,0.964,1.559
		c0.875,2.934,1.758,5.864,2.648,8.794c0.565,1.858,1.16,3.708,1.725,5.568c0.405,1.329,0.968,2.598,1.359,3.94
		c1.263,4.343,2.719,8.632,3.975,12.978c1.233,4.276,2.7,8.481,3.799,12.801c0.443,1.747,1.185,3.419,1.779,5.129
		c0.183,0.525,0.361,1.057,0.489,1.599c0.076,0.316-0.143,0.547-0.447,0.57c-0.627,0.045-1.256,0.052-1.885,0.052
		c-8.875,0.002-17.75,0.002-26.625,0.002c-51.152,0-102.307,0-153.459-0.001c-0.629,0-1.258-0.005-1.887-0.009
		C201.222,194.721,200.851,194.57,200.602,194.182z"/>
	<path fill-rule="evenodd" clip-rule="evenodd" fill="#0081A9" d="M134.779,214.36c0.01-2.515,0.136-5.035-0.002-7.542
		c-0.138-2.518,0.771-4.642,2.021-6.688c1.358-2.226,3.372-3.65,5.784-4.564c1.58-0.6,3.186-0.86,4.896-0.856
		c15.578,0.039,31.156,0.021,46.734,0.027c0.977,0,1.954,0.051,2.932,0.078c-0.2,0.381-0.544,0.55-0.935,0.681
		c-0.625,0.208-1.239,0.45-1.857,0.677c-2.562,0.809-5.198,0.85-7.857,0.841c-11.507-0.032-23.015-0.014-34.521-0.012
		c-0.907,0-1.815-0.012-2.719,0.04c-5.652,0.317-10.278,5.057-10.766,10.462c-0.112,1.247-0.074,2.508-0.094,3.763
		c-0.012,0.766,0.053,1.538-0.265,2.266C136.997,213.739,135.974,214.399,134.779,214.36z"/>
	<path fill-rule="evenodd" clip-rule="evenodd" fill="#E4E2FF" d="M360.543,116.121c0.075-0.497,0.405-0.678,0.864-0.695
		c0.144,0.257,0.288,0.514,0.433,0.771C361.407,116.171,360.976,116.146,360.543,116.121z"/>
	<path fill-rule="evenodd" clip-rule="evenodd" fill="#E4E2FF" d="M362.804,119.15c-0.32-0.193-0.427-0.456-0.258-0.806
		C362.968,118.506,363.225,118.72,362.804,119.15z"/>
	<path fill-rule="evenodd" clip-rule="evenodd" fill="#E4E2FF" d="M72.272,233.9c1.244-0.482,2.446-1.104,3.827-1.114
		c-0.078,0.114-0.131,0.289-0.238,0.333c-1.155,0.474-2.305,0.968-3.566,1.095C72.283,234.109,72.275,234.006,72.272,233.9z"/>
	<path fill-rule="evenodd" clip-rule="evenodd" fill="#0081A9" d="M185.379,275.715c-8.32,0-16.64,0.002-24.96,0
		c-2.165,0-2.342,0.216-2.339-2.286c0.012-8.39,0.001-16.781,0.006-25.171c0.001-2.302,0.014-2.31,2.307-2.31
		c16.57-0.002,33.141,0,49.71-0.002c2.401,0,2.288-0.087,2.288,2.288c-0.003,8.39-0.003,16.78,0,25.169
		c0,2.416,0.103,2.314-2.261,2.314C201.879,275.715,193.63,275.715,185.379,275.715z"/>
	<path fill-rule="evenodd" clip-rule="evenodd" fill="#E4E2FF" d="M402.101,376.837c-5.587,0-11.175,0-16.763,0
		c0-11.181,0.001-22.36,0.001-33.54c5.588,0,11.174,0,16.762,0C402.101,354.477,402.101,365.656,402.101,376.837z"/>
	<path fill-rule="evenodd" clip-rule="evenodd" fill="#F1F0FF" d="M402.101,376.837c0-11.181,0-22.36,0-33.54
		c4.682-0.006,9.363-0.011,14.045-0.015c0.28,0,0.561-0.013,0.839,0.006c1.269,0.088,1.836,0.68,1.906,2.003
		c0.019,0.348,0.004,0.698,0.004,1.048c0,9.293,0.002,18.589,0,27.882c-0.002,2.564-0.058,2.626-2.539,2.626
		C411.604,376.849,406.853,376.841,402.101,376.837z"/>
	<path fill-rule="evenodd" clip-rule="evenodd" fill="#F1F0FF" d="M385.339,343.297c0,11.18-0.001,22.359-0.001,33.54
		c-4.747,0.004-9.497,0.008-14.245,0.012c-0.35,0-0.699,0.009-1.047-0.014c-0.793-0.05-1.009-0.25-1.064-0.983
		c-0.025-0.347-0.02-0.695-0.02-1.047c-0.002-9.707-0.005-19.414,0.002-29.118c0-2.268,0.129-2.398,2.34-2.402
		C375.982,343.278,380.661,343.293,385.339,343.297z"/>
	<path fill-rule="evenodd" clip-rule="evenodd" fill="#F1F1F1" d="M134.779,214.36c1.194,0.039,2.217-0.621,3.351-0.829
		c0.013,0.908,0.036,1.815,0.036,2.723c0.005,27.51,0.009,55.019,0.012,82.529c-1.205-0.033-2.216,0.71-3.38,0.841
		c0.001-28.237,0.001-56.475,0.003-84.714c0.014-0.124,0.027-0.247,0.04-0.37L134.779,214.36z"/>
	<path fill-rule="evenodd" clip-rule="evenodd" fill="#E1E1E1" d="M308.945,301.12c0,3.418,0.001,6.836-0.001,10.256
		c0,0.487,0.013,0.976-0.017,1.462c-0.046,0.792-0.24,0.98-1,1.043c-0.139,0.011-0.279,0.013-0.419,0.013
		c-2.092,0-4.185,0.017-6.277-0.004c-1.356-0.015-1.456-0.131-1.502-1.398c-0.01-0.278-0.005-0.559-0.005-0.837
		c0-7.185-0.001-14.372,0.001-21.557c0-0.417-0.008-0.837,0.023-1.255c0.05-0.652,0.262-0.914,0.89-0.92
		c2.44-0.027,4.882-0.029,7.323-0.006c0.725,0.006,0.925,0.264,0.968,1.065c0.027,0.488,0.015,0.977,0.015,1.465
		C308.946,294.006,308.945,297.563,308.945,301.12z"/>
	<path fill-rule="evenodd" clip-rule="evenodd" fill="#E1E1E1" d="M265.307,300.993c0,3.488,0,6.978-0.001,10.466
		c0,0.488,0.01,0.977-0.022,1.462c-0.043,0.663-0.26,0.938-0.869,0.943c-2.511,0.021-5.022,0.015-7.533-0.006
		c-0.489-0.004-0.739-0.349-0.766-0.823c-0.026-0.488-0.028-0.977-0.028-1.465c-0.002-7.115,0.003-14.229-0.004-21.346
		c-0.002-2.389-0.05-2.346,2.255-2.337c1.883,0.008,3.767-0.015,5.65,0.013c1.145,0.019,1.283,0.176,1.311,1.375
		c0.025,1.115,0.008,2.231,0.008,3.347C265.307,295.413,265.307,298.203,265.307,300.993z"/>
	<path fill-rule="evenodd" clip-rule="evenodd" fill="#E1E1E1" d="M221.666,300.854c0,3.557,0.003,7.116-0.002,10.673
		c-0.001,0.557-0.011,1.115-0.06,1.67c-0.035,0.391-0.314,0.597-0.692,0.659c-0.137,0.022-0.277,0.033-0.416,0.033
		c-2.303,0.002-4.604,0.017-6.907-0.009c-0.894-0.01-1.085-0.234-1.134-1.122c-0.023-0.417-0.011-0.837-0.011-1.257
		c0-7.045,0-14.093,0-21.138c0-0.488-0.01-0.977,0.02-1.465c0.047-0.759,0.245-0.98,1.045-0.989
		c2.371-0.022,4.743-0.022,7.115,0.002c0.771,0.009,0.999,0.247,1.02,1.012c0.033,1.255,0.02,2.513,0.021,3.768
		C221.668,295.411,221.666,298.133,221.666,300.854z"/>
	<path fill-rule="evenodd" clip-rule="evenodd" fill="#E1E1E1" d="M343.365,300.68c0-3.562-0.001-7.122,0-10.684
		c0-0.349-0.009-0.698,0.016-1.047c0.053-0.79,0.244-1.014,1.002-1.037c1.187-0.033,2.375-0.021,3.562-0.022
		c1.187,0,2.374-0.015,3.561,0.019c0.799,0.022,1.008,0.239,1.06,0.98c0.027,0.416,0.02,0.836,0.02,1.255
		c0.002,7.052,0.004,14.104,0,21.155c-0.002,2.547-0.048,2.589-2.554,2.597c-1.813,0.004-3.63,0.017-5.445-0.01
		c-1.018-0.017-1.203-0.2-1.207-1.268c-0.021-3.981-0.009-7.96-0.009-11.938C343.367,300.68,343.366,300.68,343.365,300.68z"/>
	<path fill-rule="evenodd" clip-rule="evenodd" fill="#E1E1E1" d="M244.758,300.892c0,3.492,0,6.983,0,10.476
		c0,0.418,0.012,0.837-0.007,1.257c-0.047,1.066-0.192,1.242-1.218,1.259c-1.675,0.029-3.352,0.013-5.027,0.013
		c-0.559,0-1.12,0.021-1.676-0.019c-0.9-0.064-1.208-0.395-1.282-1.323c-0.027-0.35-0.015-0.698-0.015-1.047
		c0-7.193,0-14.386,0-21.579c0-0.278-0.007-0.559,0.007-0.837c0.05-0.948,0.213-1.172,1.079-1.181
		c2.374-0.024,4.748-0.022,7.123,0.004c0.759,0.009,0.981,0.243,0.995,1.037c0.031,1.745,0.019,3.492,0.021,5.238
		C244.76,296.423,244.758,298.658,244.758,300.892z"/>
	<path fill-rule="evenodd" clip-rule="evenodd" fill="#E0E0E0" d="M375.682,301.114c0,3.42,0,6.842-0.003,10.262
		c0,0.557,0,1.115-0.03,1.672c-0.027,0.479-0.293,0.809-0.783,0.812c-2.373,0.017-4.746,0.025-7.117,0.002
		c-0.605-0.006-0.828-0.291-0.874-0.943c-0.03-0.415-0.022-0.835-0.022-1.255c-0.002-7.188-0.002-14.379,0-21.568
		c0-0.417-0.008-0.839,0.024-1.255c0.049-0.647,0.267-0.912,0.896-0.918c2.302-0.027,4.606-0.031,6.908-0.006
		c0.752,0.008,0.938,0.242,0.985,1.053c0.027,0.486,0.015,0.977,0.015,1.465C375.682,293.996,375.682,297.555,375.682,301.114z"/>
	<path fill-rule="evenodd" clip-rule="evenodd" fill="#E0E0E0" d="M363.939,300.938c0,3.49,0.001,6.98-0.001,10.472
		c0,0.557,0,1.117-0.035,1.674c-0.031,0.486-0.339,0.735-0.814,0.786c-0.07,0.006-0.14,0.012-0.21,0.012
		c-2.233,0.002-4.467,0.019-6.701-0.006c-0.802-0.009-1.003-0.232-1.051-0.987c-0.031-0.485-0.021-0.977-0.021-1.465
		c-0.003-7.049,0.002-14.101-0.004-21.15c-0.001-2.479-0.071-2.392,2.422-2.383c1.606,0.004,3.211-0.015,4.816,0.006
		c1.471,0.019,1.574,0.112,1.591,1.523c0.023,2.023,0.007,4.049,0.008,6.073C363.939,297.308,363.939,299.121,363.939,300.938z"/>
	<path fill-rule="evenodd" clip-rule="evenodd" fill="#E0E0E0" d="M323.21,300.947c0-3.561-0.002-7.12,0.002-10.681
		c0.002-0.557,0.011-1.116,0.061-1.671c0.034-0.389,0.31-0.629,0.689-0.656c0.625-0.044,1.255-0.048,1.882-0.048
		c1.746,0,3.491-0.006,5.234,0.027c0.658,0.01,0.886,0.253,0.934,0.879c0.037,0.485,0.029,0.977,0.029,1.465
		c0.001,7.12,0.001,14.24,0.001,21.36c0,0.278,0.006,0.559-0.004,0.837c-0.046,1.305-0.131,1.413-1.478,1.428
		c-2.023,0.022-4.05,0.022-6.073-0.005c-1.076-0.012-1.242-0.181-1.265-1.209c-0.03-1.396-0.012-2.792-0.013-4.188
		C323.21,305.974,323.21,303.46,323.21,300.947z"/>
	<path fill-rule="evenodd" clip-rule="evenodd" fill="#E0E0E0" d="M320.297,300.954c0,3.49,0.001,6.98,0,10.472
		c0,0.488,0.011,0.979-0.021,1.465c-0.048,0.752-0.252,0.976-1.055,0.984c-2.233,0.024-4.468,0.022-6.7-0.002
		c-0.782-0.009-0.986-0.241-1.036-1.002c-0.028-0.417-0.019-0.837-0.019-1.257c-0.002-7.12,0.002-14.24-0.003-21.36
		c-0.002-2.479-0.056-2.371,2.438-2.364c1.745,0.004,3.491-0.015,5.236,0.015c0.901,0.015,1.132,0.234,1.143,1.113
		c0.029,2.233,0.015,4.467,0.017,6.7C320.299,297.466,320.297,299.209,320.297,300.954z"/>
	<path fill-rule="evenodd" clip-rule="evenodd" fill="#E0E0E0" d="M288.402,301.114c0,3.42,0.001,6.842-0.002,10.262
		c0,0.559,0,1.117-0.031,1.674c-0.028,0.477-0.296,0.807-0.785,0.809c-2.373,0.019-4.745,0.027-7.118,0.004
		c-0.604-0.006-0.829-0.291-0.875-0.943c-0.028-0.415-0.022-0.835-0.022-1.255c0-7.188,0-14.379,0-21.57
		c0-0.417-0.006-0.839,0.024-1.255c0.05-0.646,0.269-0.91,0.897-0.918c2.305-0.025,4.607-0.029,6.911-0.004
		c0.752,0.006,0.937,0.242,0.984,1.051c0.028,0.488,0.015,0.977,0.016,1.465C288.402,293.994,288.402,297.555,288.402,301.114z"/>
	<path fill-rule="evenodd" clip-rule="evenodd" fill="#E0E0E0" d="M267.825,300.864c0-3.561-0.003-7.12,0.004-10.681
		c0.001-0.555,0.029-1.114,0.081-1.667c0.029-0.301,0.247-0.485,0.547-0.548c0.135-0.031,0.274-0.061,0.411-0.062
		c2.233-0.004,4.467-0.023,6.7,0.004c0.871,0.011,1.026,0.23,1.083,1.181c0.004,0.068,0.002,0.139,0.002,0.209
		c0,7.748,0,15.496-0.002,23.243c0,0.208-0.011,0.42-0.045,0.626c-0.063,0.38-0.296,0.631-0.683,0.673
		c-0.413,0.044-0.834,0.05-1.252,0.052c-1.604,0.006-3.211,0.011-4.815,0c-2.004-0.013-2.013-0.019-2.027-1.933
		c-0.015-1.674-0.004-3.349-0.004-5.025C267.825,304.912,267.825,302.889,267.825,300.864z"/>
	<path fill-rule="evenodd" clip-rule="evenodd" fill="#E0E0E0" d="M233.016,300.897c0,3.56,0,7.118,0,10.68
		c0,0.418,0.01,0.837-0.016,1.255c-0.051,0.789-0.245,1.022-1.002,1.039c-1.605,0.033-3.21,0.022-4.815,0.022
		c-0.698,0.002-1.397,0.013-2.094-0.029c-0.614-0.035-0.834-0.282-0.877-0.937c-0.032-0.488-0.023-0.977-0.023-1.465
		c-0.001-7.05-0.001-14.1,0-21.148c0-0.488-0.009-0.979,0.024-1.465c0.044-0.656,0.261-0.921,0.887-0.927
		c2.372-0.022,4.745-0.017,7.118,0.006c0.486,0.005,0.744,0.352,0.768,0.825c0.028,0.557,0.03,1.115,0.03,1.675
		C233.017,293.917,233.016,297.407,233.016,300.897z"/>
	<path fill-rule="evenodd" clip-rule="evenodd" fill="#BFBFBF" d="M134.816,332.777c-1.292-0.033-2.409,0.609-3.594,0.967
		c-2.476,0.747-2.438,0.776-3.181-1.754c-0.625-2.128-1.319-4.236-1.982-6.354c-0.104-0.33-0.219-0.659-0.311-0.993
		c-0.326-1.183-0.185-1.496,0.933-1.895c0.849-0.302,1.716-0.551,2.577-0.821c1.521-0.474,3.051-0.924,4.563-1.429
		c0.38-0.127,0.707-0.418,1.058-0.632c1.101-0.179,2.203-0.355,3.305-0.532c0.012,3.694,0.029,7.391,0.031,11.085
		c0,0.485-0.075,0.97-0.114,1.456C136.985,332.104,135.86,332.294,134.816,332.777z"/>
	<path fill-rule="evenodd" clip-rule="evenodd" fill="#E7E7E7" d="M134.816,332.777c1.044-0.483,2.169-0.673,3.284-0.901
		c0.019,0.208,0.056,0.415,0.056,0.623c-0.003,7.802-0.01,15.604-0.016,23.405c-1.14,0.129-2.13,0.852-3.308,0.831
		C134.826,348.749,134.821,340.764,134.816,332.777z"/>
	<path fill-rule="evenodd" clip-rule="evenodd" fill="#E0E0E0" d="M134.798,299.624c1.164-0.131,2.175-0.874,3.38-0.841
		c-0.001,4.063-0.002,8.127-0.003,12.191c-0.329,0.094-0.694,0.129-0.98,0.297c-0.88,0.516-1.825,0.592-2.805,0.534
		c-0.01-0.345,0.049-0.709-0.041-1.03c-0.534-1.896-0.563-3.784-0.038-5.685c0.13-0.47,0.147-0.977-0.051-1.426
		c-0.424-0.953-0.301-1.867,0.057-2.803c0.095-0.245,0.052-0.544,0.072-0.818C134.526,299.904,134.662,299.764,134.798,299.624z"/>
	<path fill-rule="evenodd" clip-rule="evenodd" fill="#EAEAEA" d="M134.39,311.806c0.979,0.058,1.925-0.019,2.805-0.534
		c0.286-0.168,0.651-0.203,0.98-0.297c0.002,2.786,0.004,5.574,0.007,8.36c-1.102,0.177-2.203,0.354-3.304,0.532
		c-0.023-2.049-0.045-4.1-0.072-6.148c-0.007-0.538,0.091-1.109-0.423-1.506C134.384,312.076,134.387,311.94,134.39,311.806z"/>
	<path fill-rule="evenodd" clip-rule="evenodd" fill="#E0E0E0" d="M134.39,311.806c-0.002,0.135-0.005,0.271-0.008,0.407
		c-1.936,0.575-3.871,1.148-5.805,1.73c-1.534,0.459-3.064,0.936-4.599,1.39c-0.703,0.21-0.986,0.071-1.33-0.604
		c-0.126-0.249-0.258-0.5-0.338-0.767c-0.801-2.667-1.594-5.337-2.385-8.009c-0.078-0.267-0.16-0.536-0.18-0.811
		c-0.027-0.368,0.091-0.689,0.483-0.829c0.461-0.162,0.917-0.341,1.385-0.479c1.936-0.574,3.884-1.11,5.812-1.71
		c1.325-0.414,2.624-0.91,3.933-1.376c0.985-0.349,1.947-0.785,3.032-0.702c-0.021,0.272,0.022,0.571-0.072,0.816
		c-0.358,0.936-0.481,1.85-0.057,2.803c0.198,0.449,0.181,0.956,0.051,1.426c-0.525,1.9-0.496,3.789,0.038,5.685
		C134.439,311.097,134.38,311.461,134.39,311.806z"/>
	<path fill-rule="evenodd" clip-rule="evenodd" fill="#E4E2FF" d="M97.064,226.282c0.697-0.642,1.632-0.697,2.47-0.975
		c1.772-0.587,3.562-1.123,5.351-1.659c0.319-0.096,0.67-0.086,1.007-0.125c-0.072,0.117-0.117,0.298-0.22,0.342
		c-2.673,1.137-5.51,1.759-8.271,2.621C97.318,226.512,97.178,226.354,97.064,226.282z"/>
	<path fill-rule="evenodd" clip-rule="evenodd" fill="#E4E2FF" d="M91.382,228.177c0.084-0.105,0.147-0.261,0.257-0.307
		c1.484-0.622,2.968-1.252,4.603-1.375c-0.031,0.061-0.046,0.151-0.096,0.177C94.652,227.469,93.079,228.02,91.382,228.177z"/>
	<path fill-rule="evenodd" clip-rule="evenodd" fill="#E4E2FF" d="M106.704,223.304c1.462-0.758,2.988-1.31,4.643-1.447
		c-0.11,0.27-0.296,0.457-0.577,0.551c-1.112,0.371-2.225,0.743-3.338,1.113C107.141,223.617,106.896,223.547,106.704,223.304z"/>
	<path fill-rule="evenodd" clip-rule="evenodd" fill="#E4E2FF" d="M123.696,218.107c1.062-0.812,2.261-1.222,3.597-1.227
		C126.16,217.662,125.355,217.935,123.696,218.107z"/>
	<path fill-rule="evenodd" clip-rule="evenodd" fill="#E4E2FF" d="M128.123,216.652c1.014-0.696,2.141-1.048,3.367-1.091
		c-0.862,0.714-2.018,1.155-3.216,1.218C128.226,216.782,128.173,216.696,128.123,216.652z"/>
	<path fill-rule="evenodd" clip-rule="evenodd" fill="#E4E2FF" d="M118.238,219.784c1.06-0.819,2.282-1.149,3.598-1.198
		C120.788,219.441,119.534,219.676,118.238,219.784z"/>
	<path fill-rule="evenodd" clip-rule="evenodd" fill="#E4E2FF" d="M134.841,214.54c-0.013,0.123-0.026,0.246-0.04,0.37
		c-0.587,0.211-1.173,0.421-1.76,0.631c-0.286,0.103-0.538,0.072-0.732-0.186C133.054,214.773,133.902,214.515,134.841,214.54z"/>
	<path fill-rule="evenodd" clip-rule="evenodd" fill="#E4E2FF" d="M87.2,229.446c0.621-0.715,1.415-0.927,2.325-0.802
		C88.905,229.363,88.083,229.494,87.2,229.446z"/>
	<path fill-rule="evenodd" clip-rule="evenodd" fill="#E4E2FF" d="M76.913,232.545c0.623-0.487,1.343-0.676,2.119-0.688
		C78.391,232.644,77.747,232.853,76.913,232.545z"/>
	<path fill-rule="evenodd" clip-rule="evenodd" fill="#E4E2FF" d="M83.033,230.723c0.249-0.389,0.558-0.613,1.036-0.388
		C83.836,230.767,83.472,230.845,83.033,230.723z"/>
	<path fill-rule="evenodd" clip-rule="evenodd" fill="#E4E2FF" d="M112.158,221.621c0.225-0.269,0.5-0.404,0.857-0.323
		C112.755,221.989,112.691,222.013,112.158,221.621z"/>
	<path fill-rule="evenodd" clip-rule="evenodd" fill="#E4E2FF" d="M358.015,116.876c0.333-0.603,0.333-0.603,0.857-0.264
		C358.643,116.884,358.368,117.005,358.015,116.876z"/>
</g>
</svg>
