<?xml version="1.0" encoding="utf-8"?>
<!-- Generator: Adobe Illustrator 16.0.0, SVG Export Plug-In . SVG Version: 6.00 Build 0)  -->
<!DOCTYPE svg PUBLIC "-//W3C//DTD SVG 1.1//EN" "http://www.w3.org/Graphics/SVG/1.1/DTD/svg11.dtd">
<svg version="1.1" id="Layer_1" focusable="false" xmlns="http://www.w3.org/2000/svg" xmlns:xlink="http://www.w3.org/1999/xlink"
	 x="0px" y="0px" width="500px" height="500px" viewBox="0 0 500 500" enable-background="new 0 0 500 500" xml:space="preserve">
<path fill="#0C5460" d="M453.125,250H46.875C20.987,250,0,270.986,0,296.875s20.987,46.875,46.875,46.875h406.25
	c25.889,0,46.875-20.986,46.875-46.875S479.014,250,453.125,250L453.125,250z M468.75,375H31.25
	c-8.629,0-15.625,6.996-15.625,15.625v15.625c0,34.518,27.982,62.5,62.5,62.5h343.75c34.518,0,62.5-27.982,62.5-62.5v-15.625
	C484.375,381.996,477.38,375,468.75,375z M57.266,218.75h385.469c33.76,0,53.34-42.871,34.004-74.102
	C437.5,81.25,351.123,31.348,250,31.25c-101.113,0.098-187.5,50-226.738,113.389C3.906,175.869,23.506,218.75,57.266,218.75z
	 M375,109.375c8.63,0,15.625,6.996,15.625,15.625S383.63,140.625,375,140.625s-15.625-6.996-15.625-15.625
	S366.37,109.375,375,109.375z M250,78.125c8.629,0,15.625,6.996,15.625,15.625s-6.996,15.625-15.625,15.625
	c-8.629,0-15.625-6.996-15.625-15.625S241.371,78.125,250,78.125z M125,109.375c8.629,0,15.625,6.996,15.625,15.625
	s-6.996,15.625-15.625,15.625s-15.625-6.996-15.625-15.625S116.371,109.375,125,109.375z"/>
</svg>
