<?xml version="1.0" encoding="utf-8"?>
<!-- Generator: Adobe Illustrator 16.0.0, SVG Export Plug-In . SVG Version: 6.00 Build 0)  -->
<!DOCTYPE svg PUBLIC "-//W3C//DTD SVG 1.1//EN" "http://www.w3.org/Graphics/SVG/1.1/DTD/svg11.dtd">
<svg version="1.1" id="Layer_1" focusable="false" xmlns="http://www.w3.org/2000/svg" xmlns:xlink="http://www.w3.org/1999/xlink"
	 x="0px" y="0px" width="595.279px" height="841.891px" viewBox="0 0 595.279 841.891" enable-background="new 0 0 595.279 841.891"
	 xml:space="preserve">
<path fill="#2F160F" d="M297.773,268.139c-84.508,0-152.673,68.165-152.673,152.674c0,84.508,68.165,152.673,152.673,152.673
	c84.509,0,152.674-68.165,152.674-152.673C450.447,336.304,382.281,268.139,297.773,268.139z M297.773,520.07
	c-54.611,0-99.258-44.514-99.258-99.258c0-54.745,44.514-99.258,99.258-99.258s99.258,44.513,99.258,99.258
	C397.031,475.557,352.384,520.07,297.773,520.07z M492.302,261.894c0,19.798-15.945,35.61-35.61,35.61
	c-19.799,0-35.61-15.945-35.61-35.61s15.944-35.61,35.61-35.61C476.357,226.283,492.302,242.228,492.302,261.894z M593.42,298.036
	c-2.26-47.702-13.155-89.957-48.102-124.77c-34.812-34.813-77.067-45.709-124.77-48.101c-49.163-2.79-196.521-2.79-245.686,0
	c-47.569,2.259-89.823,13.155-124.77,47.968c-34.946,34.813-45.709,77.068-48.101,124.77c-2.791,49.164-2.791,196.522,0,245.686
	c2.259,47.702,13.154,89.956,48.101,124.77s77.067,45.709,124.77,48.101c49.164,2.791,196.522,2.791,245.686,0
	c47.702-2.259,89.957-13.154,124.77-48.101c34.813-34.813,45.709-77.067,48.102-124.77
	C596.21,494.425,596.21,347.199,593.42,298.036z M529.906,596.34c-10.364,26.044-30.429,46.108-56.604,56.605
	c-39.198,15.546-132.211,11.958-175.528,11.958s-136.463,3.455-175.527-11.958c-26.044-10.364-46.108-30.429-56.605-56.605
	c-15.546-39.198-11.958-132.21-11.958-175.527S50.227,284.35,65.64,245.284c10.364-26.043,30.429-46.107,56.605-56.604
	c39.198-15.547,132.21-11.959,175.527-11.959s136.463-3.455,175.528,11.959c26.043,10.364,46.107,30.428,56.604,56.604
	c15.546,39.198,11.959,132.211,11.959,175.528S545.451,557.274,529.906,596.34z"/>
</svg>
