<?xml version="1.0" encoding="utf-8"?>
<!-- Generator: Adobe Illustrator 16.0.0, SVG Export Plug-In . SVG Version: 6.00 Build 0)  -->
<!DOCTYPE svg PUBLIC "-//W3C//DTD SVG 1.1//EN" "http://www.w3.org/Graphics/SVG/1.1/DTD/svg11.dtd">
<svg version="1.1" id="Layer_1" focusable="false" xmlns="http://www.w3.org/2000/svg" xmlns:xlink="http://www.w3.org/1999/xlink"
	 x="0px" y="0px" width="595.279px" height="841.891px" viewBox="0 0 595.279 841.891" enable-background="new 0 0 595.279 841.891"
	 xml:space="preserve">
<path fill="#2F160F" d="M534.089,299.699c0.378,5.288,0.378,10.577,0.378,15.864c0,161.284-122.757,347.121-347.12,347.121
	c-69.122,0-133.333-20.02-187.347-54.769c9.82,1.133,19.263,1.511,29.462,1.511c57.034,0,109.537-19.263,151.464-52.124
	c-53.636-1.134-98.584-36.261-114.071-84.609c7.556,1.133,15.109,1.889,23.042,1.889c10.953,0,21.908-1.512,32.105-4.154
	c-55.901-11.333-97.829-60.435-97.829-119.736v-1.51c16.241,9.065,35.128,14.731,55.146,15.485
	c-32.861-21.908-54.39-59.301-54.39-101.606c0-22.662,6.042-43.437,16.618-61.567c60.058,74.032,150.332,122.379,251.559,127.668
	c-1.888-9.065-3.021-18.507-3.021-27.95c0-67.234,54.391-122.002,122.002-122.002c35.127,0,66.854,14.73,89.141,38.527
	c27.572-5.288,54.013-15.487,77.432-29.462c-9.066,28.33-28.329,52.125-53.636,67.233c24.552-2.643,48.349-9.443,70.255-18.885
	C578.661,260.794,557.885,282.323,534.089,299.699z"/>
</svg>
